HIERARCHY
ROOT root
{
	OFFSET	0	13.1	24.9
	CHANNELS 6  Xposition Yposition Zposition Xrotation Yrotation Zrotation
	JOINT spine_1
	{
		OFFSET	0	9.99999	0
		CHANNELS 3  Xrotation Yrotation Zrotation
		JOINT spine_2
		{
			OFFSET	0	112	-10
			CHANNELS 3  Xrotation Yrotation Zrotation
			JOINT spine_3
			{
				OFFSET	0	206.5	19.3
				CHANNELS 3  Xrotation Yrotation Zrotation
				JOINT spine_4
				{
					OFFSET	0	110.4	14.6
					CHANNELS 3  Xrotation Yrotation Zrotation
					JOINT neck_1
					{
						OFFSET	0	71.8	-50.3
						CHANNELS 3  Xrotation Yrotation Zrotation
						JOINT neck_2
						{
							OFFSET	0	86.2	-25.8
							CHANNELS 3  Xrotation Yrotation Zrotation
							JOINT head_ee
							{
								OFFSET	0	179.8	-8.7
								CHANNELS 3  Xrotation Yrotation Zrotation
								End Site
								{
									OFFSET	1	0	0
								}
							}
						}
					}
					JOINT left_clavicle
					{
						OFFSET	-43.2	22.4	-70.8
						CHANNELS 3  Xrotation Yrotation Zrotation
						JOINT left_shoulder
						{
							OFFSET	-93.9	-5.79999	48.7
							CHANNELS 3  Xrotation Yrotation Zrotation
							JOINT left_elbow
							{
								OFFSET	-291.4	-30.8	15.2
								CHANNELS 3  Xrotation Yrotation Zrotation
								JOINT left_lowarm_twist
								{
									OFFSET	-110.7	-3.89999	13.6
									CHANNELS 3  Xrotation Yrotation Zrotation
									JOINT left_hand
									{
										OFFSET	-110.7	-3.89999	13.6
										CHANNELS 3  Xrotation Yrotation Zrotation
										JOINT left_ee
										{
											OFFSET	-80.8	-5.10001	12.1
											CHANNELS 3  Xrotation Yrotation Zrotation
											End Site
											{
												OFFSET	1	0	0
											}
										}
									}
								}
							}
						}
					}
					JOINT right_clavicle
					{
						OFFSET	43.2	22.4	-70.8
						CHANNELS 3  Xrotation Yrotation Zrotation
						JOINT right_shoulder
						{
							OFFSET	93.9	-5.79999	48.7
							CHANNELS 3  Xrotation Yrotation Zrotation
							JOINT right_elbow
							{
								OFFSET	291.4	-30.8	15.2
								CHANNELS 3  Xrotation Yrotation Zrotation
								JOINT right_lowarm_twist
								{
									OFFSET	110.7	-3.89999	13.6
									CHANNELS 3  Xrotation Yrotation Zrotation
									JOINT right_hand
									{
										OFFSET	110.7	-3.89999	13.6
										CHANNELS 3  Xrotation Yrotation Zrotation
										JOINT right_ee
										{
											OFFSET	80.8	-5.10001	12.1
											CHANNELS 3  Xrotation Yrotation Zrotation
											End Site
											{
												OFFSET	1	0	0
											}
										}
									}
								}
							}
						}
					}
				}
			}
		}
	}
	JOINT left_hip
	{
		OFFSET	-82.8	-127.5	0.300001
		CHANNELS 3  Xrotation Yrotation Zrotation
		JOINT left_knee
		{
			OFFSET	-28.2	-396.7	2.2
			CHANNELS 3  Xrotation Yrotation Zrotation
			JOINT left_ankle
			{
				OFFSET	-11.7	-411.3	35.4
				CHANNELS 3  Xrotation Yrotation Zrotation
				JOINT left_toes
				{
					OFFSET	0	-60	-88.6
					CHANNELS 3  Xrotation Yrotation Zrotation
					JOINT left_foot_ee
					{
						OFFSET	-22.5	-16.5	-42.2
						CHANNELS 3  Xrotation Yrotation Zrotation
						End Site
						{
							OFFSET	1	0	0
						}
					}
				}
			}
		}
	}
	JOINT right_hip
	{
		OFFSET	82.8	-127.5	0.300001
		CHANNELS 3  Xrotation Yrotation Zrotation
		JOINT right_knee
		{
			OFFSET	28.2	-396.7	2.2
			CHANNELS 3  Xrotation Yrotation Zrotation
			JOINT right_ankle
			{
				OFFSET	11.7	-411.3	35.4
				CHANNELS 3  Xrotation Yrotation Zrotation
				JOINT right_toes
				{
					OFFSET	0	-60	-88.6
					CHANNELS 3  Xrotation Yrotation Zrotation
					JOINT right_foot_ee
					{
						OFFSET	22.5	-16.5	-42.2
						CHANNELS 3  Xrotation Yrotation Zrotation
						End Site
						{
							OFFSET	1	0	0
						}
					}
				}
			}
		}
	}
}
MOTION
Frames: 16
Frame Time: 0.02
3177.02 653.055 -1669.29 -8.73183994309 6.74868093243 -1.38244843751 2.2266 0.420327 2.77505 2.23085 0.242963 2.79615 2.24234 -0.241016 2.79631 2.23149 0.203456 2.79929 10.2204 19.2997 -0.860658 12.2221 32.495 -1.6089 -0.0 0.0 -0.0 -6.17025 18.2424 -7.32373 -19.4592 -24.7125 78.5667 0.906275 -24.177 0.194102 8.50238 0.221065 -1.0626 2.05097 24.5268 21.9719 -0.0 0.0 -0.0 12.4021 20.4711 -24.8252 4.00802 13.09 -65.9591 1.60865 38.5476 -0.562547 44.0346 0.575578 5.4592 3.26723 23.5314 -11.4174 0.0 0.0 0.0 36.9268 18.2994 -7.42921 -5.16079 0.177818 0.771801 7.73318 5.7198 -1.10843 -32.2635 0.0 0.0 -0.0 0.0 -0.0 0.587809 -1.3951 11.1782 -22.5962 -0.255774 -3.43571 36.0376 19.5826 4.96043 7.74272 -0.0 -0.0 0.0 0.0 0.0 
3157.02032903 655.149 -1688.69537196 -8.13560426017 6.37132386375 -1.61318026622 2.06745 0.372378 2.86546 2.07199 0.189365 2.88333 2.08129 -0.316958 2.87211 2.0698 0.140421 2.88612 9.3184 19.4876 -0.56081 11.2523 32.81 -1.08126 -0.0 0.0 -0.0 -6.07441 18.367 -7.13809 -17.9775 -24.6477 78.3281 0.942363 -25.0237 0.209126 8.63504 0.223258 -1.0794 1.84687 24.9708 20.8246 -0.0 0.0 -0.0 12.1482 20.376 -24.2473 3.28966 12.5887 -66.3256 1.45738 35.825 -0.471095 44.8565 0.625667 5.55168 3.39568 24.4052 -11.8075 0.0 0.0 0.0 35.8674 19.2141 -6.7745 -5.96129 0.199139 0.892798 9.17115 5.77742 -1.30822 -31.6893 0.0 0.0 -0.0 0.0 -0.0 -1.19569 0.567582 11.9326 -22.0676 -0.265347 -3.35516 35.5893 17.0744 4.82207 7.89857 -0.0 -0.0 0.0 0.0 0.0 
3156.89322478 655.149 -1688.56351082 -8.14173255586 6.74409389628 -1.55951954822 2.06745 0.372378 2.86546 2.07199 0.189365 2.88333 2.08129 -0.316958 2.87211 2.0698 0.140421 2.88612 9.3184 19.4876 -0.56081 11.2523 32.81 -1.08126 -0.0 0.0 -0.0 -6.07441 18.367 -7.13809 -17.9775 -24.6477 78.3281 0.942363 -25.0237 0.209126 8.63504 0.223258 -1.0794 1.84687 24.9708 20.8246 -0.0 0.0 -0.0 12.1482 20.376 -24.2473 3.28966 12.5887 -66.3256 1.45738 35.825 -0.471095 44.8565 0.625667 5.55168 3.39568 24.4052 -11.8075 0.0 0.0 0.0 35.8674 19.2141 -6.7745 -5.96129 0.199139 0.892798 9.17115 5.77742 -1.30822 -31.6893 0.0 0.0 -0.0 0.0 -0.0 -1.19569 0.567582 11.9326 -22.0676 -0.265347 -3.35516 35.5893 17.0744 4.82207 7.89857 -0.0 -0.0 0.0 0.0 0.0 
3156.77156907 655.149 -1688.43566125 -8.14797522682 7.10329096194 -1.50773375485 2.06745 0.372378 2.86546 2.07199 0.189365 2.88333 2.08129 -0.316958 2.87211 2.0698 0.140421 2.88612 9.3184 19.4876 -0.56081 11.2523 32.81 -1.08126 -0.0 0.0 -0.0 -6.07441 18.367 -7.13809 -17.9775 -24.6477 78.3281 0.942363 -25.0237 0.209126 8.63504 0.223258 -1.0794 1.84687 24.9708 20.8246 -0.0 0.0 -0.0 12.1482 20.376 -24.2473 3.28966 12.5887 -66.3256 1.45738 35.825 -0.471095 44.8565 0.625667 5.55168 3.39568 24.4052 -11.8075 0.0 0.0 0.0 35.8674 19.2141 -6.7745 -5.96129 0.199139 0.892798 9.17115 5.77742 -1.30822 -31.6893 0.0 0.0 -0.0 0.0 -0.0 -1.19569 0.567582 11.9326 -22.0676 -0.265347 -3.35516 35.5893 17.0744 4.82207 7.89857 -0.0 -0.0 0.0 0.0 0.0 
3125.85976641 659.814 -1735.80498327 -7.74018272916 6.95835331818 -1.98392634233 2.18686 0.203909 2.83646 2.19133 0.0230785 2.84368 2.19199 -0.468534 2.80494 2.18102 -0.0198518 2.84371 10.1997 19.8832 -1.0746 12.3823 33.6615 -1.94855 -0.0 0.0 -0.0 -5.0623 20.4584 -5.02884 -13.6226 -22.2529 74.2989 0.866233 -23.2243 0.178006 7.33021 0.200001 -0.914353 0.896614 25.5095 15.2886 -0.0 0.0 -0.0 11.8928 19.6914 -23.7097 0.643885 11.2651 -67.6683 1.11482 28.9088 -0.287374 45.1239 0.64225 5.58161 3.07262 24.7846 -9.48555 0.0 0.0 0.0 32.6883 18.8585 -4.27402 -7.07031 0.225878 1.06089 12.8443 9.52997 -1.80794 -30.4146 0.0 0.0 -0.0 0.0 -0.0 -5.10131 9.97541 10.7674 -22.8198 -0.251502 -3.46975 35.1194 2.29681 4.45147 6.91113 -0.0 -0.0 0.0 0.0 0.0 
3125.80603523 659.814 -1735.76362118 -7.74094632335 7.0042297059 -1.97764395654 2.18686 0.203909 2.83646 2.19133 0.0230785 2.84368 2.19199 -0.468534 2.80494 2.18102 -0.0198518 2.84371 10.1997 19.8832 -1.0746 12.3823 33.6615 -1.94855 -0.0 0.0 -0.0 -5.0623 20.4584 -5.02884 -13.6226 -22.2529 74.2989 0.866233 -23.2243 0.178006 7.33021 0.200001 -0.914353 0.896614 25.5095 15.2886 -0.0 0.0 -0.0 11.8928 19.6914 -23.7097 0.643885 11.2651 -67.6683 1.11482 28.9088 -0.287374 45.1239 0.64225 5.58161 3.07262 24.7846 -9.48555 0.0 0.0 0.0 32.6883 18.8585 -4.27402 -7.07031 0.225878 1.06089 12.8443 9.52997 -1.80794 -30.4146 0.0 0.0 -0.0 0.0 -0.0 -5.10131 9.97541 10.7674 -22.8198 -0.251502 -3.46975 35.1194 2.29681 4.45147 6.91113 -0.0 -0.0 0.0 0.0 0.0 
3125.92446829 659.814 -1735.8546989 -7.7392706715 6.90314770999 -1.99148464456 2.18686 0.203909 2.83646 2.19133 0.0230785 2.84368 2.19199 -0.468534 2.80494 2.18102 -0.0198518 2.84371 10.1997 19.8832 -1.0746 12.3823 33.6615 -1.94855 -0.0 0.0 -0.0 -5.0623 20.4584 -5.02884 -13.6226 -22.2529 74.2989 0.866233 -23.2243 0.178006 7.33021 0.200001 -0.914353 0.896614 25.5095 15.2886 -0.0 0.0 -0.0 11.8928 19.6914 -23.7097 0.643885 11.2651 -67.6683 1.11482 28.9088 -0.287374 45.1239 0.64225 5.58161 3.07262 24.7846 -9.48555 0.0 0.0 0.0 32.6883 18.8585 -4.27402 -7.07031 0.225878 1.06089 12.8443 9.52997 -1.80794 -30.4146 0.0 0.0 -0.0 0.0 -0.0 -5.10131 9.97541 10.7674 -22.8198 -0.251502 -3.46975 35.1194 2.29681 4.45147 6.91113 -0.0 -0.0 0.0 0.0 0.0 
3126.12548216 659.814 -1736.00851733 -7.73648876884 6.73189784192 -2.01491952605 2.18686 0.203909 2.83646 2.19133 0.0230785 2.84368 2.19199 -0.468534 2.80494 2.18102 -0.0198518 2.84371 10.1997 19.8832 -1.0746 12.3823 33.6615 -1.94855 -0.0 0.0 -0.0 -5.0623 20.4584 -5.02884 -13.6226 -22.2529 74.2989 0.866233 -23.2243 0.178006 7.33021 0.200001 -0.914353 0.896614 25.5095 15.2886 -0.0 0.0 -0.0 11.8928 19.6914 -23.7097 0.643885 11.2651 -67.6683 1.11482 28.9088 -0.287374 45.1239 0.64225 5.58161 3.07262 24.7846 -9.48555 0.0 0.0 0.0 32.6883 18.8585 -4.27402 -7.07031 0.225878 1.06089 12.8443 9.52997 -1.80794 -30.4146 0.0 0.0 -0.0 0.0 -0.0 -5.10131 9.97541 10.7674 -22.8198 -0.251502 -3.46975 35.1194 2.29681 4.45147 6.91113 -0.0 -0.0 0.0 0.0 0.0 
3109.15425456 667.923 -1751.21572732 -7.30179419634 7.08005672528 -2.14285437605 2.12541 0.185497 2.73739 2.12958 0.0110006 2.74364 2.12971 -0.466077 2.70382 2.11951 -0.0333778 2.74346 10.2042 20.0327 -0.474949 12.3027 33.3683 -1.18476 -0.0 0.0 -0.0 -3.70029 17.1267 -3.73582 -14.8069 -22.4323 73.3182 0.90955 -24.2543 0.195445 7.16811 0.196849 -0.893886 1.14596 25.0295 16.6136 -0.0 0.0 -0.0 11.8407 20.1693 -23.5568 -2.4212 10.6718 -66.8474 1.03054 27.0436 -0.247832 44.8953 0.628066 5.55603 3.64292 26.39 -12.3615 0.0 0.0 0.0 31.5944 19.3678 -3.19978 -8.97535 0.264194 1.3507 14.4073 6.0823 -2.01539 -29.8898 0.0 0.0 -0.0 0.0 -0.0 -5.29901 10.1497 11.3642 -23.74 -0.232518 -3.60969 38.807 4.69724 4.82298 7.89186 -0.0 -0.0 0.0 0.0 0.0 
3095.45395687 679.614 -1792.39850502 -5.37466981087 7.59940653153 -1.70408640297 2.16078 0.227567 2.71676 2.16488 0.0542967 2.72573 2.16707 -0.418517 2.69397 2.15694 0.012034 2.72624 9.92313 19.4691 0.199292 11.7501 31.9103 -0.207306 -0.0 0.0 -0.0 -3.81817 18.5403 -3.61194 -14.5279 -21.7945 71.5445 0.821813 -22.1512 0.160873 5.87371 0.169608 -0.730785 0.669198 23.367 13.2621 -0.0 0.0 -0.0 11.3238 16.7702 -22.5839 -6.50387 9.33359 -69.2876 0.970896 25.6849 -0.221344 43.5257 0.545238 5.40159 3.8239 28.125 -12.5728 0.0 0.0 0.0 25.7447 18.9357 -2.50767 -8.8942 0.262759 1.33833 17.517 7.4044 -2.4183 -28.2254 0.0 0.0 -0.0 0.0 -0.0 -1.83451 15.2326 6.89477 -36.4567 0.256867 -5.49585 39.5094 -0.171166 4.83228 10.513 -0.0 -0.0 0.0 0.0 0.0 
3082.03315563 685.359 -1822.9470789 -4.529922489 9.27841219863 -1.245994925 2.27978 0.236684 2.65661 2.28371 0.0672184 2.66628 2.28634 -0.389974 2.63848 2.27663 0.0314649 2.66694 12.1342 18.6271 0.323869 13.8466 29.7272 -0.266835 -0.0 0.0 -0.0 -4.31068 18.9358 -4.27294 -12.7271 -21.0506 71.7819 0.817663 -22.0501 0.159311 5.30685 0.156518 -0.659556 0.350133 23.8792 11.5571 -0.0 0.0 -0.0 11.3009 16.0465 -22.5657 -9.26128 5.38707 -70.5275 0.807103 21.7922 -0.155369 44.6902 0.615427 5.53303 3.35038 23.8683 -11.7916 0.0 0.0 0.0 22.8031 18.6903 -2.28931 -9.20584 0.268176 1.38584 19.9028 8.67083 -2.71961 -27.1957 0.0 0.0 -0.0 0.0 -0.0 0.00215166 17.8768 3.99336 -42.1869 0.611728 -6.30168 39.9514 -1.69855 4.86145 11.964 -0.0 -0.0 0.0 0.0 0.0 
3059.72566614 688.348 -1861.42307119 -3.15177786787 8.50194482622 -1.1350613822 2.2701 0.487885 2.58338 2.27376 0.322567 2.60917 2.28815 -0.128262 2.62589 2.27864 0.287913 2.61322 8.75361 16.6606 -1.56146 10.2435 29.1281 -2.02551 -0.0 0.0 -0.0 -3.22109 18.6515 -2.67957 -9.07618 -21.5692 66.8895 0.969419 -25.6509 0.220704 6.85949 0.190689 -0.854943 -0.158686 22.1193 7.93454 -0.0 0.0 -0.0 11.0393 18.5919 -21.8376 -14.387 8.01696 -72.4652 0.68975 18.8644 -0.114587 41.4881 0.428916 5.16832 3.91739 26.9621 -13.8384 0.0 0.0 0.0 19.5476 16.3432 -2.64142 -13.1096 0.314087 1.98296 21.3472 11.4079 -2.90487 -26.3207 0.0 0.0 -0.0 0.0 -0.0 3.29991 27.0001 -0.56566 -47.6397 1.02287 -7.03263 37.7273 -4.6766 4.65578 14.7275 -0.0 -0.0 0.0 0.0 0.0 
3032.59777014 690.856 -1882.15306895 -3.14714891018 11.0954065077 -1.10735818196 2.44743 0.513218 2.76655 2.45162 0.336206 2.79357 2.46745 -0.137556 2.81035 2.45656 0.307835 2.79683 9.3317 15.628 -3.97526 11.0676 29.4256 -5.11651 -0.0 0.0 -0.0 -4.0613 22.4162 -3.10001 -7.23432 -21.4168 65.9024 1.20534 -30.8398 0.332468 6.52977 0.183876 -0.813376 -0.56222 16.768 3.38269 -0.0 0.0 -0.0 10.5554 15.0629 -20.929 -15.9511 6.62967 -72.9196 0.565605 15.6522 -0.0777413 40.7015 0.386252 5.0772 3.94192 25.825 -14.6408 0.0 0.0 0.0 16.3621 15.9855 -1.20146 -13.2482 0.314968 2.00421 26.047 12.5974 -3.47032 -25.1267 0.0 0.0 -0.0 0.0 -0.0 5.47288 31.557 -2.72573 -50.5234 1.26806 -7.40277 35.5602 -6.83549 4.45368 15.9497 -0.0 -0.0 0.0 0.0 0.0 
3007.97687286 696.592 -1891.67007412 -2.29329488016 13.4370782219 -1.05724350702 2.33419 0.402755 2.61264 2.33795 0.235749 2.63295 2.34835 -0.215191 2.63471 2.33873 0.203465 2.63564 9.30624 14.4819 -5.29138 11.055 28.7027 -6.70592 -0.0 0.0 -0.0 -3.75323 23.257 -2.4788 -4.78723 -17.758 65.9301 1.38639 -34.4785 0.43022 6.06162 0.173791 -0.754424 -0.809837 14.397 0.854184 -0.0 0.0 -0.0 10.2925 16.3298 -20.2831 -17.6747 8.49112 -73.1304 0.493122 13.7275 -0.059358 40.475 0.3742 5.05086 3.20175 22.1816 -11.6803 0.0 0.0 0.0 11.6611 13.729 0.0543524 -8.67426 0.25878 1.30481 25.9507 13.3209 -3.46408 -25.5611 0.0 0.0 -0.0 0.0 -0.0 8.20239 34.0955 -4.35472 -53.0622 1.49919 -7.71821 34.4036 -8.91937 4.34722 15.7783 -0.0 -0.0 0.0 0.0 0.0 
2995.38596456 700.745 -1894.55552792 -2.27610199218 14.431015312 0.131269191679 2.34903 0.39812 2.55314 2.35262 0.234906 2.57328 2.36275 -0.205226 2.57582 2.35355 0.204013 2.57592 8.35919 13.9685 -5.56337 9.98946 28.2602 -6.80933 -0.0 0.0 -0.0 -3.7091 23.3944 -2.38741 -3.51257 -19.7539 64.4679 1.50735 -36.7461 0.500666 7.08669 0.195245 -0.883609 -0.988491 11.7209 -1.43205 -0.0 0.0 -0.0 10.5289 16.5966 -20.7993 -18.0747 10.3199 -74.1213 0.440549 12.3111 -0.0475134 41.0206 0.403409 5.11424 3.03744 24.7204 -9.28839 0.0 0.0 0.0 10.6814 10.0607 -1.57874 -8.61481 0.257682 1.29576 23.4988 16.8006 -3.20329 -25.5379 0.0 0.0 -0.0 0.0 -0.0 13.9095 37.734 -9.42815 -55.5369 1.73781 -8.0157 31.2703 -10.7687 4.03623 16.997 -0.0 -0.0 0.0 0.0 0.0 
2983.1863042 702.315 -1904.37641681 -1.93441335403 14.4909617125 0.0391229324259 2.34342 0.356603 2.61335 2.3472 0.189645 2.63073 2.35544 -0.259969 2.62471 2.34586 0.15767 2.63283 7.55778 15.9313 -7.7246 9.95866 33.5698 -9.48536 -0.0 0.0 -0.0 -3.81903 22.6443 -2.70663 -0.67997 -17.9753 63.8176 1.48656 -36.3655 0.488283 9.99054 0.243429 -1.25137 -0.747487 7.58561 -1.69314 -0.0 0.0 -0.0 10.4743 16.555 -20.6789 -18.3531 13.5754 -74.9504 0.384585 10.7865 -0.0363084 40.264 0.363065 5.02627 2.85885 20.9527 -10.0123 0.0 0.0 0.0 7.90244 11.4502 -1.34047 -6.11275 0.202982 0.915724 23.606 16.3055 -3.21152 -25.7515 0.0 0.0 -0.0 0.0 -0.0 17.3871 35.5117 -10.504 -58.3053 2.0198 -8.33609 27.2856 -11.0164 3.60255 17.3217 -0.0 -0.0 0.0 0.0 0.0 
